<svg xmlns="http://www.w3.org/2000/svg" width="22" height="25" viewBox="0 0 22 25">
    <g fill="none" fill-rule="evenodd">
        <path fill="#FFF" d="M21.971 18.29H22V25l-3.286-3.257c-.232.042-.47.063-.714.063H4a4 4 0 0 1-4-4V4a4 4 0 0 1 4-4h14a4 4 0 0 1 4 4v13.806c0 .164-.01.326-.029.484z"/>
        <path fill="#1C304A" fill-rule="nonzero" d="M3.482 16.542l.91-1.084c.452.49 2.575 1.295 4.699 1.572 2.892.378 5.59-.113 7.67-1.658l.721 1.256c-2.372 1.761-5.37 2.307-8.542 1.892-2.384-.311-4.75-1.207-5.458-1.978z"/>
    </g>
</svg>
