<svg xmlns="http://www.w3.org/2000/svg" width="28" height="28" viewBox="0 0 28 28">
    <g fill="none" fill-rule="evenodd">
        <path fill="#1C304A" d="M28 13.858c0 7.652-6.203 13.854-13.854 13.854C6.495 27.712.292 21.51.292 13.858.292 6.208 6.495.005 14.146.005 21.797.005 28 6.208 28 13.858"/>
        <path fill="#FFF" d="M17.292 9.668c.45 0 .816.362.816.81 0 .446-.366.808-.816.808a.813.813 0 0 1-.816-.809c0-.447.366-.81.816-.81m2.057 4.076h-.535c1.363 0 2.478-1.106 2.478-2.457h-1.63c0-1.973-1.614-3.573-3.604-3.573-1.991 0-3.605 1.6-3.605 3.573 0 .953.378 1.816.99 2.457H6.292c0 4.383 3.617 7.97 8.04 7.97h2.197c2.62 0 4.763-2.125 4.763-4.722v-1.323a1.94 1.94 0 0 0-1.943-1.925"/>
    </g>
</svg>
