<svg xmlns="http://www.w3.org/2000/svg" width="21" height="18" viewBox="0 0 21 18">
    <g fill="none" fill-rule="evenodd" stroke="#FFF" stroke-linecap="round" stroke-linejoin="round">
        <path d="M17.323 7.041c0-.428-.413-.776-.921-.776-.51 0-.922.348-.922.776v5.82c0 .429.413.776.922.776.508 0 .921-.347.921-.776v-5.82zM11.765 17.323c.452 0 .82-.413.82-.921 0-.51-.368-.922-.82-.922H9.717c-.452 0-.819.413-.819.922 0 .508.367.921.82.921h2.047z"/>
        <path d="M3.633 7.45c0-3.562 3.111-6.45 6.95-6.45 3.838 0 6.95 2.888 6.95 6.45M18.113 7.582c1.018 0 1.843 1.237 1.843 2.764 0 1.527-.825 2.765-1.843 2.765"/>
        <path d="M3.633 7.041c0-.428.413-.776.921-.776.509 0 .922.348.922.776v5.82c0 .429-.413.776-.922.776-.508 0-.921-.347-.921-.776v-5.82zM2.843 7.582C1.825 7.582 1 8.819 1 10.346c0 1.527.825 2.765 1.843 2.765M17.455 14.164c0 1.727-1.152 2.764-3.072 2.764h-1.536"/>
    </g>
</svg>
