<svg xmlns="http://www.w3.org/2000/svg" width="11" height="10" viewBox="0 0 11 10">
    <path fill="#9AA6B8" fill-rule="evenodd" d="M5.896.235l1.357 2.618c.065.124.19.21.333.23l3.035.42c.363.05.507.473.245.716L8.67 6.257a.409.409 0 0 0-.126.373l.518 2.878c.062.343-.317.605-.64.443L5.705 8.592a.462.462 0 0 0-.411 0L2.579 9.951c-.323.162-.702-.1-.64-.443l.518-2.878a.409.409 0 0 0-.126-.373L.134 4.22c-.262-.243-.118-.666.244-.716l3.036-.42a.439.439 0 0 0 .332-.23L5.104.235a.45.45 0 0 1 .792 0z" opacity=".6"/>
</svg>
