<svg xmlns="http://www.w3.org/2000/svg" width="24" height="24" viewBox="0 0 24 24">
    <g fill="none" fill-rule="evenodd" stroke-linecap="round" stroke-linejoin="round">
        <path stroke="#6386EC" d="M12.225 21.192c0-.003.001-.004.004-.004s.005.001.005.004-.002.006-.005.006-.004-.003-.004-.006zM3.401 12.36c.003 0 .005.002.005.005 0 .002-.002.004-.005.004s-.004-.002-.004-.004c0-.003.001-.005.004-.005zM21.057 12.36c.002 0 .005.002.005.005 0 .002-.003.004-.005.004s-.004-.002-.004-.004c0-.003.002-.005.004-.005z"/>
        <path stroke="#FFF" d="M23 12.23C23 6.28 18.177 1.457 12.23 1.457c-5.95 0-10.772 4.823-10.772 10.771C1.458 18.178 6.281 23 12.23 23S23 18.178 23 12.23z"/>
        <path stroke="#FFF" d="M12.234 3.542v8.82l4.736 3.869"/>
    </g>
</svg>
