<svg xmlns="http://www.w3.org/2000/svg" width="18" height="18" viewBox="0 0 18 18">
    <g fill="#C75146" fill-rule="evenodd">
        <path fill-rule="nonzero" d="M9.977 2.029a1 1 0 0 0-1.789-.008L1.358 15.55A1 1 0 0 0 2.25 17h13.528a1 1 0 0 0 .896-1.444L9.977 2.03zm.896-.444l6.698 13.528A2 2 0 0 1 15.778 18H2.25a2 2 0 0 1-1.785-2.901L7.295 1.57a2 2 0 0 1 3.578.014z"/>
        <path d="M8.364 12.633L8.11 8h1.752l-.243 4.633H8.364zM8 14.073c0-.512.447-.927 1-.927.552 0 .999.415.999.927 0 .511-.447.926-1 .926-.53.021-.977-.36-1-.85a.955.955 0 0 1 0-.076z"/>
    </g>
</svg>
