<?xml version="1.0" encoding="UTF-8"?>
<svg width="11px" height="8px" viewBox="0 0 11 8" version="1.1" xmlns="http://www.w3.org/2000/svg" xmlns:xlink="http://www.w3.org/1999/xlink">
    <!-- Generator: Sketch 50.2 (55047) - http://www.bohemiancoding.com/sketch -->
    <title></title>
    <desc>Created with Sketch.</desc>
    <defs></defs>
    <g id="Day" stroke="none" stroke-width="1" fill="none" fill-rule="evenodd">
        <g id="nasduck_02_profile_2FA-Copy-2" transform="translate(-918.000000, -577.000000)" fill="#13315C">
            <g id="NasDuck" transform="translate(109.000000, 560.000000)">
                <g id="Group-81" transform="translate(804.000000, 10.000000)">
                    <path d="M6.90624665,8.70936883 C6.90624665,8.59218161 6.86067394,8.48801529 6.76952822,8.39686958 L5.89062407,7.34218459 L5.89062407,7.18593496 L8.64452375,7.18593496 L10.7538937,11.8343614 L12.609358,7.18593496 L15.2265393,7.18593496 L15.2265393,7.34218459 L14.4648224,8.06483912 C14.3997185,8.11692243 14.3736767,8.18853664 14.3866976,8.27968236 L14.3866976,13.5921697 C14.3736767,13.6833154 14.3997185,13.7549296 14.4648224,13.8070129 L15.2070081,14.5296675 L15.2070081,14.6859171 L11.4960795,14.6859171 L11.4960795,14.5296675 L12.2577964,13.7874817 C12.2968588,13.7484193 12.3196453,13.7191225 12.3261556,13.6995913 C12.3326659,13.6800601 12.3359212,13.6377424 12.3359212,13.5726385 L12.3359212,9.27577373 L10.2265512,14.6663859 L9.93358318,14.6663859 L7.45312034,9.27577373 L7.45312034,12.8890464 C7.44009944,13.045296 7.48567245,13.1820144 7.58983877,13.2992016 L8.58593014,14.5101363 L8.58593014,14.6663859 L5.77343685,14.6663859 L5.77343685,14.5101363 L6.76952822,13.2992016 C6.88671544,13.1820144 6.93228815,13.045296 6.90624665,12.8890464 L6.90624665,8.70936883 Z" id=""></path>
                </g>
            </g>
        </g>
    </g>
</svg>