<svg xmlns="http://www.w3.org/2000/svg" width="11" height="8" viewBox="0 0 11 8">
    <path fill="#FFF" fill-rule="evenodd" d="M1.906 1.71a.43.43 0 0 0-.136-.313L.89.342V.186h2.755l2.109 4.648L7.609.186h2.618v.156l-.762.723c-.065.052-.091.124-.078.215v5.312c-.013.091.013.163.078.215l.742.723v.156h-3.71V7.53l.76-.743a.287.287 0 0 0 .07-.087.505.505 0 0 0 .009-.127V2.276l-2.11 5.39h-.292l-2.48-5.39v3.613a.528.528 0 0 0 .136.41l.996 1.211v.156H.773V7.51L1.77 6.3a.448.448 0 0 0 .136-.411v-4.18z"/>
</svg>
