<svg xmlns="http://www.w3.org/2000/svg" width="13" height="12" viewBox="0 0 13 12">
    <path fill="#13315C" fill-rule="nonzero" d="M8.729 9.72a.222.222 0 0 0-.34 0c-.403.4-1.277.543-1.883.543-.607 0-1.489-.143-1.884-.542a.222.222 0 0 0-.34 0 .245.245 0 0 0 0 .339c.637.637 1.866.686 2.231.686.366 0 1.594-.05 2.23-.686a.245.245 0 0 0-.014-.34zM5.3 7.698A1.002 1.002 0 1 0 4.298 8.7c.552-.002.998-.45.998-1.003H5.3zm4.404 0A1.002 1.002 0 1 0 8.702 8.7c.552-.002.999-.45.999-1.003h.003zm2.796-1.34c0 .503-.28.964-.727 1.197.052.209.078.422.079.637 0 2.11-2.396 3.828-5.339 3.828-2.942 0-5.327-1.718-5.327-3.828.003-.209.025-.417.068-.622A1.353 1.353 0 0 1 .5 6.356a1.338 1.338 0 0 1 2.306-.915 6.462 6.462 0 0 1 3.447-1.082L7.037.874a.219.219 0 0 1 .275-.17l2.453.547a1.006 1.006 0 1 1-.102.456L7.44 1.19l-.705 3.165c1.235.02 2.438.389 3.47 1.066a1.334 1.334 0 0 1 2.291.93l.004.004z"/>
</svg>
