<svg xmlns="http://www.w3.org/2000/svg" width="11" height="9" viewBox="0 0 11 9">
    <path fill="#13315C" fill-rule="nonzero" d="M3.813 8.76c3.667-.09 5.669-3.145 5.669-5.799 0-.088-.002-.176-.006-.263.4-.288.749-.647 1.024-1.056a4.123 4.123 0 0 1-1.178.321c.423-.252.749-.652.902-1.128a4.127 4.127 0 0 1-1.303.495A2.056 2.056 0 0 0 7.423.686a2.046 2.046 0 0 0-2 2.504 5.838 5.838 0 0 1-4.229-2.13 2.035 2.035 0 0 0 .635 2.722 2.054 2.054 0 0 1-.93-.256v.026c0 .988.708 1.812 1.647 2a2.067 2.067 0 0 1-.927.034c.261.81 1.019 1.4 1.917 1.416A4.135 4.135 0 0 1 .5 7.847v.001c.876.558 1.911.89 3.023.913h.29"/>
</svg>
